# xmcd CD database file
#
# Track frame offsets:
#	187
#	20197
#	49725
#	77760
#	100002
#	121797
#	144225
#	166045
#	193327
#	218352
#
# Disc length: 3294 seconds
#
# Revision: 1
# Processed by: cddbd v1.5.1PL0 Copyright (c) Steve Scherf et al.
# Submitted via: CDex 1.51
#
DISCID=7b0cdc0a
DTITLE=Spice - El Corazon
DYEAR=1994
DGENRE=Jazz
TTITLE0=So What (Miles Davis)
TTITLE1=Young And Fine (Joe Zawinul)
TTITLE2=Cantalope Island (Harbie Hancock)
TTITLE3=Portrait Of Jennie (Gordon Burdge - Russel Robinson)
TTITLE4=Bop Town Shuffle (Shiro Sasaki)
TTITLE5=Bemsha Swing (Thelonious Monk - Denzil Best)
TTITLE6=Time Difference (Hideki Nakaji)
TTITLE7=El Corazon (Chikako Sasaki)
TTITLE8=Cta (Jimmy Heath)
TTITLE9=On Green Dolphin Street (Ned Washington - Bronislaw Kaper)
EXTD=YEAR: 1994
EXTT0=
EXTT1=
EXTT2=
EXTT3=
EXTT4=
EXTT5=
EXTT6=
EXTT7=
EXTT8=
EXTT9=
PLAYORDER=
